<svg xmlns="http://www.w3.org/2000/svg" version="1.0" width="598.000000" height="197.000000" preserveAspectRatio="xMidYMid meet" style=""><rect id="backgroundrect" width="100%" height="100%" x="0" y="0" fill="none" stroke="none"/>
<metadata>
Created by potrace 1.16, written by Peter Selinger 2001-2019
</metadata>

<g class="currentLayer" style=""><title>Layer 1</title><g transform="translate(0,197) scale(0.10000000149011612,-0.10000000149011612) " fill="#ffffff" stroke="none" id="svg_1" class="selected" fill-opacity="1">
<path d="M1000 1636 l0 -334 -57 24 c-155 62 -395 57 -550 -12 -167 -73 -308 -230 -365 -404 -29 -91 -36 -278 -14 -386 66 -321 365 -541 711 -521 55 3 125 14 155 23 235 70 413 257 470 495 19 80 20 116 20 709 l0 625 -168 58 c-93 31 -176 57 -185 57 -16 0 -17 -29 -17 -334z m-255 -640 c69 -18 104 -38 154 -86 156 -152 117 -394 -81 -500 -56 -30 -72 -34 -138 -34 -62 0 -84 5 -129 28 -100 52 -164 141 -186 259 -12 60 26 165 80 225 56 62 95 87 166 106 68 18 73 19 134 2z" id="svg_2" fill="#ffffff" fill-opacity="1"/>
<path d="M4773 1913 l-163 -55 0 -616 c1 -711 1 -719 76 -869 79 -161 205 -270 387 -336 75 -28 93 -30 217 -31 124 -1 142 1 220 28 124 42 185 80 275 170 137 138 195 283 195 485 0 125 -18 210 -65 306 -156 321 -540 467 -876 335 -27 -11 -52 -20 -54 -20 -3 0 -5 149 -5 330 l0 330 -22 -1 c-13 0 -96 -25 -185 -56z m652 -941 c115 -55 188 -170 187 -294 -2 -105 -82 -222 -190 -275 -170 -83 -378 22 -428 217 -27 105 6 208 91 292 92 91 225 114 340 60z" id="svg_3" fill="#ffffff" fill-opacity="1"/>
<path d="M3725 1356 c-322 -74 -535 -337 -535 -661 0 -113 13 -186 48 -273 60 -145 172 -265 316 -339 197 -100 448 -98 637 4 76 41 169 117 169 138 0 13 -231 236 -252 244 -5 2 -22 -8 -36 -22 -15 -14 -53 -38 -86 -53 -50 -23 -68 -26 -127 -22 -83 6 -158 40 -214 98 l-39 40 473 0 474 0 -6 148 c-6 168 -21 234 -76 347 -78 159 -213 271 -401 335 -83 28 -257 36 -345 16z m265 -376 c58 -29 107 -66 120 -90 11 -20 6 -20 -247 -20 l-257 0 35 36 c96 100 238 130 349 74z" id="svg_4" fill="#ffffff" fill-opacity="1"/>
<path d="M1390 1345 c0 -8 33 -110 74 -227 41 -117 118 -339 171 -493 53 -154 122 -353 153 -442 l56 -163 157 0 157 0 42 133 c23 72 59 190 82 262 22 72 48 155 57 185 l18 55 51 -160 c28 -88 72 -230 99 -315 l49 -155 161 -3 160 -2 82 237 c45 131 111 321 146 423 175 505 225 653 225 666 0 12 -34 14 -194 14 l-193 0 -109 -329 c-60 -182 -112 -327 -116 -323 -4 4 -20 52 -37 107 -16 55 -46 152 -66 215 -20 63 -50 162 -68 220 l-32 105 -155 3 -155 2 -48 -157 c-134 -440 -155 -505 -159 -497 -3 5 -54 154 -113 332 l-107 322 -194 0 c-165 0 -194 -2 -194 -15z" id="svg_5" fill="#ffffff" fill-opacity="1"/>
</g></g></svg>